<mxfile host="app.diagrams.net" modified="2023-09-22T14:21:20.325Z" agent="Mozilla/5.0 (Macintosh; Intel Mac OS X 10_15_7) AppleWebKit/605.1.15 (KHTML, like Gecko) Version/16.6 Safari/605.1.15" etag="BYE-rhSk_12tqZxwkTLR" version="21.7.5" type="device" pages="2">
  <diagram id="0ag6mKftxZob6dSHxMLT" name="Page-2">
    <mxGraphModel dx="977" dy="491" grid="1" gridSize="10" guides="1" tooltips="1" connect="1" arrows="1" fold="1" page="1" pageScale="1" pageWidth="850" pageHeight="1100" math="0" shadow="0">
      <root>
        <mxCell id="0" />
        <mxCell id="1" parent="0" />
        <mxCell id="cRQh5yImWK-u1jlB61cD-1" value="" style="rounded=1;whiteSpace=wrap;html=1;" vertex="1" parent="1">
          <mxGeometry x="490" y="150" width="230" height="490" as="geometry" />
        </mxCell>
        <mxCell id="cRQh5yImWK-u1jlB61cD-2" value="" style="rounded=1;whiteSpace=wrap;html=1;" vertex="1" parent="1">
          <mxGeometry x="590" y="250" width="120" height="20" as="geometry" />
        </mxCell>
        <mxCell id="cRQh5yImWK-u1jlB61cD-3" value="" style="rounded=1;whiteSpace=wrap;html=1;" vertex="1" parent="1">
          <mxGeometry x="500" y="290" width="120" height="20" as="geometry" />
        </mxCell>
        <mxCell id="cRQh5yImWK-u1jlB61cD-4" value="" style="rounded=1;whiteSpace=wrap;html=1;" vertex="1" parent="1">
          <mxGeometry x="590" y="330" width="120" height="20" as="geometry" />
        </mxCell>
        <mxCell id="cRQh5yImWK-u1jlB61cD-5" value="" style="rounded=1;whiteSpace=wrap;html=1;" vertex="1" parent="1">
          <mxGeometry x="500" y="370" width="120" height="20" as="geometry" />
        </mxCell>
        <mxCell id="cRQh5yImWK-u1jlB61cD-6" value="9:00 PM" style="text;html=1;strokeColor=none;fillColor=none;align=center;verticalAlign=middle;whiteSpace=wrap;rounded=0;" vertex="1" parent="1">
          <mxGeometry x="565" y="400" width="80" height="10" as="geometry" />
        </mxCell>
        <mxCell id="cRQh5yImWK-u1jlB61cD-7" value="" style="rounded=1;whiteSpace=wrap;html=1;" vertex="1" parent="1">
          <mxGeometry x="590" y="440" width="120" height="20" as="geometry" />
        </mxCell>
        <mxCell id="cRQh5yImWK-u1jlB61cD-8" value="" style="rounded=1;whiteSpace=wrap;html=1;" vertex="1" parent="1">
          <mxGeometry x="500" y="480" width="120" height="20" as="geometry" />
        </mxCell>
        <mxCell id="cRQh5yImWK-u1jlB61cD-9" value="" style="rounded=1;whiteSpace=wrap;html=1;" vertex="1" parent="1">
          <mxGeometry x="590" y="520" width="120" height="20" as="geometry" />
        </mxCell>
        <mxCell id="cRQh5yImWK-u1jlB61cD-10" value="Delivered" style="text;html=1;strokeColor=none;fillColor=none;align=center;verticalAlign=middle;whiteSpace=wrap;rounded=0;" vertex="1" parent="1">
          <mxGeometry x="660" y="550" width="35" height="10" as="geometry" />
        </mxCell>
        <mxCell id="cRQh5yImWK-u1jlB61cD-11" value="" style="shape=delay;whiteSpace=wrap;html=1;" vertex="1" parent="1">
          <mxGeometry x="530" y="590" width="165" height="20" as="geometry" />
        </mxCell>
        <mxCell id="cRQh5yImWK-u1jlB61cD-12" value="" style="ellipse;whiteSpace=wrap;html=1;aspect=fixed;" vertex="1" parent="1">
          <mxGeometry x="500" y="590" width="20" height="20" as="geometry" />
        </mxCell>
        <mxCell id="cRQh5yImWK-u1jlB61cD-13" value="" style="ellipse;whiteSpace=wrap;html=1;aspect=fixed;fontStyle=1;fontSize=42;" vertex="1" parent="1">
          <mxGeometry x="575" y="160" width="60" height="60" as="geometry" />
        </mxCell>
        <mxCell id="cRQh5yImWK-u1jlB61cD-16" value="Let&#39;s do it!" style="ellipse;whiteSpace=wrap;html=1;" vertex="1" parent="1">
          <mxGeometry x="100" y="450" width="120" height="80" as="geometry" />
        </mxCell>
        <mxCell id="ElEKW88IL53k4bw2HWK7-1" value="No thanks!" style="ellipse;whiteSpace=wrap;html=1;" vertex="1" parent="1">
          <mxGeometry x="270" y="450" width="120" height="80" as="geometry" />
        </mxCell>
      </root>
    </mxGraphModel>
  </diagram>
  <diagram name="Page-1" id="eMZ9rnqEqAEefZ5bGhug">
    <mxGraphModel dx="977" dy="491" grid="1" gridSize="10" guides="1" tooltips="1" connect="1" arrows="1" fold="1" page="1" pageScale="1" pageWidth="850" pageHeight="1100" math="0" shadow="0">
      <root>
        <mxCell id="0" />
        <mxCell id="1" parent="0" />
        <mxCell id="h4CpnrOqZftZtksnKqvp-1" value="" style="rounded=1;whiteSpace=wrap;html=1;" vertex="1" parent="1">
          <mxGeometry x="490" y="150" width="230" height="490" as="geometry" />
        </mxCell>
        <mxCell id="h4CpnrOqZftZtksnKqvp-2" value="" style="rounded=1;whiteSpace=wrap;html=1;" vertex="1" parent="1">
          <mxGeometry x="590" y="250" width="120" height="20" as="geometry" />
        </mxCell>
        <mxCell id="h4CpnrOqZftZtksnKqvp-3" value="" style="rounded=1;whiteSpace=wrap;html=1;" vertex="1" parent="1">
          <mxGeometry x="500" y="290" width="120" height="20" as="geometry" />
        </mxCell>
        <mxCell id="h4CpnrOqZftZtksnKqvp-4" value="" style="rounded=1;whiteSpace=wrap;html=1;" vertex="1" parent="1">
          <mxGeometry x="590" y="330" width="120" height="20" as="geometry" />
        </mxCell>
        <mxCell id="h4CpnrOqZftZtksnKqvp-5" value="" style="rounded=1;whiteSpace=wrap;html=1;" vertex="1" parent="1">
          <mxGeometry x="500" y="370" width="120" height="20" as="geometry" />
        </mxCell>
        <mxCell id="h4CpnrOqZftZtksnKqvp-6" value="9:00 PM" style="text;html=1;strokeColor=none;fillColor=none;align=center;verticalAlign=middle;whiteSpace=wrap;rounded=0;" vertex="1" parent="1">
          <mxGeometry x="565" y="400" width="80" height="10" as="geometry" />
        </mxCell>
        <mxCell id="h4CpnrOqZftZtksnKqvp-8" value="" style="rounded=1;whiteSpace=wrap;html=1;" vertex="1" parent="1">
          <mxGeometry x="590" y="440" width="120" height="20" as="geometry" />
        </mxCell>
        <mxCell id="h4CpnrOqZftZtksnKqvp-9" value="" style="rounded=1;whiteSpace=wrap;html=1;" vertex="1" parent="1">
          <mxGeometry x="500" y="480" width="120" height="20" as="geometry" />
        </mxCell>
        <mxCell id="h4CpnrOqZftZtksnKqvp-10" value="" style="rounded=1;whiteSpace=wrap;html=1;" vertex="1" parent="1">
          <mxGeometry x="590" y="520" width="120" height="20" as="geometry" />
        </mxCell>
        <mxCell id="h4CpnrOqZftZtksnKqvp-14" value="Delivered" style="text;html=1;strokeColor=none;fillColor=none;align=center;verticalAlign=middle;whiteSpace=wrap;rounded=0;" vertex="1" parent="1">
          <mxGeometry x="660" y="550" width="35" height="10" as="geometry" />
        </mxCell>
        <mxCell id="h4CpnrOqZftZtksnKqvp-16" value="" style="shape=delay;whiteSpace=wrap;html=1;" vertex="1" parent="1">
          <mxGeometry x="530" y="590" width="165" height="20" as="geometry" />
        </mxCell>
        <mxCell id="h4CpnrOqZftZtksnKqvp-17" value="" style="ellipse;whiteSpace=wrap;html=1;aspect=fixed;" vertex="1" parent="1">
          <mxGeometry x="500" y="590" width="20" height="20" as="geometry" />
        </mxCell>
        <mxCell id="h4CpnrOqZftZtksnKqvp-18" value="M" style="ellipse;whiteSpace=wrap;html=1;aspect=fixed;fontStyle=1;fontSize=42;" vertex="1" parent="1">
          <mxGeometry x="575" y="160" width="60" height="60" as="geometry" />
        </mxCell>
        <mxCell id="h4CpnrOqZftZtksnKqvp-21" value="Marissa" style="text;html=1;strokeColor=none;fillColor=none;align=center;verticalAlign=middle;whiteSpace=wrap;rounded=0;" vertex="1" parent="1">
          <mxGeometry x="575" y="220" width="60" height="30" as="geometry" />
        </mxCell>
        <mxCell id="U4G1PLllsz4PD9R1zmTw-2" value="&lt;div style=&quot;text-align: left; font-size: 13px;&quot;&gt;&lt;font style=&quot;font-size: 13px;&quot;&gt;What&#39;s your name?&lt;/font&gt;&lt;/div&gt;&lt;div style=&quot;text-align: left; font-size: 13px;&quot;&gt;&lt;font style=&quot;font-size: 13px;&quot;&gt;&lt;br&gt;&lt;/font&gt;&lt;/div&gt;&lt;div style=&quot;text-align: left; font-size: 13px;&quot;&gt;&lt;font style=&quot;font-size: 13px;&quot;&gt;What&#39;s the recipients name?&lt;/font&gt;&lt;/div&gt;&lt;div style=&quot;text-align: left; font-size: 13px;&quot;&gt;&lt;font style=&quot;font-size: 13px;&quot;&gt;&lt;br&gt;&lt;/font&gt;&lt;/div&gt;&lt;div style=&quot;text-align: left; font-size: 13px;&quot;&gt;&lt;font style=&quot;font-size: 13px;&quot;&gt;What&#39;s the recipients phone number?&lt;/font&gt;&lt;/div&gt;&lt;div style=&quot;text-align: left; font-size: 13px;&quot;&gt;&lt;font style=&quot;font-size: 13px;&quot;&gt;&lt;br&gt;&lt;/font&gt;&lt;/div&gt;&lt;div style=&quot;text-align: left; font-size: 13px;&quot;&gt;&lt;font style=&quot;font-size: 13px;&quot;&gt;Do you want to add an image of your recipient to your virtual phone?&lt;/font&gt;&lt;/div&gt;&lt;div style=&quot;text-align: left; font-size: 13px;&quot;&gt;&lt;br&gt;&lt;/div&gt;&lt;div style=&quot;text-align: left; font-size: 13px;&quot;&gt;Start Texting!&lt;/div&gt;" style="whiteSpace=wrap;html=1;aspect=fixed;verticalAlign=top;" vertex="1" parent="1">
          <mxGeometry x="110" y="276.25" width="207.5" height="207.5" as="geometry" />
        </mxCell>
        <mxCell id="5o39yk_xP5DbrKFo6eVN-1" value="Before you can send a message&lt;br&gt;let&#39;s set up your virtual phone!&amp;nbsp;&lt;br&gt;It should just take a minute" style="ellipse;shape=cloud;whiteSpace=wrap;html=1;" vertex="1" parent="1">
          <mxGeometry x="20" y="100" width="250" height="170" as="geometry" />
        </mxCell>
      </root>
    </mxGraphModel>
  </diagram>
</mxfile>
